<svg xmlns="http://www.w3.org/2000/svg" viewBox="0 0 680 240" width="680" height="240">
<rect x="25.5" y="54.5" width="156" height="159" rx="37" fill="none" stroke="#FFFFFF" stroke-width="3"></rect>
<path fill-rule="evenodd" fill="#FFFFFF" d="M419,199L420,200L422,200L421,198Z M378,189L379,189L381,192L381,194L380,195L377,195L376,194L377,193L377,190Z M304,188L305,187L308,187L311,190L311,191L308,193L305,193L304,192Z M263,187L265,187L267,188L269,191L269,195L268,197L265,199L263,199L260,196L260,190Z M395,186L395,200L397,199L397,194L396,193L397,192L399,193L399,195L400,196L400,198L401,200L403,200L404,198L404,196L405,195L405,193L407,191L408,192L408,196L407,197L408,198L407,200L409,200L409,186L406,186L405,188L405,190L404,191L404,193L402,196L400,193L400,191L399,190L399,188L398,186Z M377,186L377,188L376,189L375,194L372,200L374,200L376,197L381,197L383,199L383,200L385,200L384,198L384,196L383,195L383,193L382,192L382,190L381,189L381,187L380,186Z M354,186L354,200L363,200L363,199L357,199L356,198L356,195L357,194L362,194L363,193L362,192L357,192L356,191L356,188L357,187L363,187L363,186Z M334,186L334,187L337,187L338,188L338,200L340,200L340,188L341,187L345,187L345,186Z M302,186L302,200L304,200L304,195L305,194L306,194L309,197L310,200L313,200L310,196L310,194L313,190L312,188L310,186Z M281,186L281,198L283,200L289,200L291,199L292,197L292,186L290,186L290,196L287,199L285,199L283,197L283,186Z M261,186L258,189L258,197L261,200L268,200L271,196L271,190L268,186Z M238,186L241,192L243,194L243,200L245,200L245,194L248,188L250,186L248,186L246,190L244,192L242,190L241,187L240,186Z M428,98L411,161L462,161L464,158L468,146L432,145L446,98L428,98Z M368,98L350,161L401,161L406,146L372,145L385,98L368,98Z M294,98L280,146L281,155L291,161L326,161L336,157L342,150L357,98L339,98L327,142L322,146L299,144L312,98L294,98Z M285,98L234,100L226,110L212,161L229,161L237,136L270,136L273,123L241,123L241,117L246,112L281,112L285,98Z M65,79L47,162L58,150L72,142L75,129L98,129L92,145L96,161L107,166L132,166L135,170L131,178L87,178L74,194L134,194L149,186L153,175L153,164L149,156L139,151L114,151L111,143L115,139L153,139L160,123L111,124L115,113L78,112L82,96L128,96L134,79L65,79Z M660,198L660,200L662,201L663,200L663,198Z M624,186L624,200L633,200L633,198L630,198L628,199L626,197L626,195L627,194L632,194L633,193L632,192L627,192L626,191L626,189L628,187L629,188L633,188L633,186Z M574,186L574,200L584,200L583,198L578,198L577,197L577,186Z M535,186L535,198L539,201L542,201L544,200L546,198L546,186L544,186L544,196L541,199L540,199L537,196L537,186Z M526,186L516,186L516,200L519,200L519,195L520,194L525,194L525,192L520,192L519,191L519,189L520,188L525,188Z M463,186L463,200L466,200L466,195L467,194L471,194L473,196L473,198L472,200L475,200L475,186L473,186L473,191L472,192L467,192L466,191L466,186Z M443,186L443,188L446,188L447,189L447,200L450,200L450,193L449,192L450,190L449,189L450,188L454,188L454,186Z M643,185L642,186L642,188L645,188L646,189L646,200L649,200L649,189L650,188L653,188L653,186L644,186Z M607,185L604,187L603,190L605,193L607,194L610,194L612,196L612,197L610,199L608,199L605,196L604,196L603,198L607,201L610,201L614,199L614,194L612,192L608,192L606,190L606,189L608,187L612,189L614,189L614,188L610,185Z M557,185L556,186L556,200L565,200L565,198L562,198L561,199L559,198L559,186Z M486,185L485,186L485,200L495,200L494,198L490,198L489,199L488,198L488,195L489,194L494,194L494,192L489,192L488,191L488,189L489,188L494,188L495,186L487,186Z M82,150L84,152L83,153L74,159L72,158L72,160L68,162L64,168L62,168L62,171L59,172L57,178L61,175L63,176L61,174L68,169L67,167L69,165L72,166L71,164L74,161L76,163L75,160L84,152L86,155L86,162L81,174L70,186L57,192L52,192L49,188L48,183L50,174L54,166L61,158L74,150L82,150Z M86,149L76,147L64,152L52,164L46,179L47,190L51,194L60,194L72,188L80,180L87,168L88,152L86,150L86,149Z M679,97L625,97L620,111L620,113L640,114L626,161L644,160L658,113L678,113L679,111L679,97Z M561,97L542,161L598,161L603,146L565,146L565,141L568,136L600,137L605,122L572,122L573,115L612,113L617,97L561,97Z M550,97L502,97L492,102L484,120L485,132L491,136L518,136L522,139L521,143L517,146L477,146L472,161L521,161L529,158L538,145L538,126L530,122L504,122L503,115L545,113L550,99L550,97Z"></path>
</svg>